<?xml version="1.0" encoding="UTF-8" standalone="no"?>
<svg
   version="1.1"
   id="Layer_1"
   x="0px"
   y="0px"
   width="100%"
   viewBox="0 0 416 384"
   enable-background="new 0 0 416 384"
   xml:space="preserve"
   sodipodi:docname="file (1).svg"
   inkscape:version="1.4.2 (ebf0e940, 2025-05-08)"
   xmlns:inkscape="http://www.inkscape.org/namespaces/inkscape"
   xmlns:sodipodi="http://sodipodi.sourceforge.net/DTD/sodipodi-0.dtd"
   xmlns="http://www.w3.org/2000/svg"
   xmlns:svg="http://www.w3.org/2000/svg"><defs
   id="defs12" /><sodipodi:namedview
   id="namedview12"
   pagecolor="#ffffff"
   bordercolor="#000000"
   borderopacity="0.25"
   inkscape:showpageshadow="2"
   inkscape:pageopacity="0.0"
   inkscape:pagecheckerboard="0"
   inkscape:deskcolor="#d1d1d1"
   inkscape:zoom="1.6985615"
   inkscape:cx="242.26383"
   inkscape:cy="214.29899"
   inkscape:window-width="1632"
   inkscape:window-height="881"
   inkscape:window-x="0"
   inkscape:window-y="31"
   inkscape:window-maximized="0"
   inkscape:current-layer="Layer_1" />
<path
   fill="#000000"
   opacity="1"
   stroke="none"
   d="m 307.04324,207.07068 c 4.2215,-5.18427 8.20026,-10.10784 12.23242,-14.98726 2.76206,-3.34244 5.77173,-3.18848 8.41993,-0.0226 17.04092,20.37241 33.30337,41.33859 43.33056,66.22452 8.17514,20.28937 1.98774,42.80951 -14.97491,56.83118 -2.37177,1.96054 -3.11551,4.06988 -2.9491,6.91464 0.28452,4.86432 0.0866,9.72934 -2.18573,14.15951 -3.64105,7.09858 -9.43844,11.01725 -17.55072,11.20325 -1.33264,0.0306 -2.66635,0.0245 -3.99954,0.0202 -8.93231,-0.0288 -8.98065,-0.0359 -10.03781,8.79279 -0.38364,3.2037 -2.12988,4.88013 -5.20731,4.93564 -6.49707,0.11719 -12.99988,0.15015 -19.49582,0.009 -3.88916,-0.0843 -5.41412,-2.67999 -5.78466,-6.25494 -0.77045,-7.43338 -0.79609,-7.50458 -8.26148,-7.46561 -22.16028,0.11567 -44.3203,0.42978 -66.48029,0.41648 -30.13468,-0.0181 -60.27046,-0.16446 -90.40264,-0.51984 -4.9822,-0.0587 -6.85205,1.28128 -6.6537,6.42661 0.21554,5.59097 -1.92013,7.35473 -7.60084,7.43741 -5.49853,0.08 -11.000034,-0.0451 -16.498599,0.034 -4.791229,0.0689 -6.938141,-2.2662 -7.153977,-6.96908 -0.311775,-6.79343 -0.412704,-6.78879 -7.253036,-6.83835 -13.218361,-0.0958 -20.676273,-5.12735 -23.269879,-15.89566 -0.498947,-2.07157 -0.549495,-4.28775 -0.5503,-6.43732 -0.02304,-61.49731 -0.02159,-122.99463 -0.004,-184.49194 0.0056,-19.67795 12.111057,-31.79388 31.80476,-31.79602 78.163248,-0.008 156.326488,-0.002 234.489748,0.0264 19.66482,0.007 32.25024,12.56561 32.28521,32.16012 0.0351,19.66574 0.016,39.33162 -0.005,58.99739 -0.002,1.65791 -0.0791,6.31148 -0.19709,7.93617 -0.49659,6.83724 -2.05065,12.66642 -4.14239,12.76193 -2.08673,0.0953 -3.57999,-9.09203 -4.27164,-12.53746 -0.41866,-2.08556 -0.71905,-7.05899 -0.71954,-9.22584 -0.004,-15.99924 -0.13705,-32.00005 0.0623,-47.9967 0.054,-4.3341 -1.28113,-5.8089 -5.69391,-5.78521 -27.83124,0.14951 -55.66422,0.13587 -83.49544,-0.0235 -4.30647,-0.0247 -5.8011,1.25348 -5.79259,5.68321 0.11597,60.33043 0.11637,120.66124 -3.2e-4,180.99169 -0.009,4.6925 1.36855,6.39569 6.24335,6.38446 24.81969,-0.0572 49.64003,0.20334 74.46019,0.34485 7.04599,0.0402 11.15964,-2.41395 13.17126,-7.79862 0.71375,-1.91058 1.46439,-4.01687 -0.002,-5.67999 -1.4747,-1.67233 -3.41645,-0.39508 -5.12171,0.0969 -12.87005,3.71375 -25.31387,2.77756 -37.39703,-3.15313 -21.7352,-10.66822 -36.01511,-40.05738 -23.83109,-66.49544 8.01294,-17.3873 18.83072,-32.93659 30.48404,-48.41417 M 146.5,145.17595 c -25.32703,0.0138 -50.655205,0.15822 -75.980103,-0.0675 -5.121177,-0.0457 -6.508811,1.59408 -6.494819,6.56967 0.161209,57.31908 0.116501,114.6387 0.147842,171.95819 0.006,10.91043 4.155289,15.01087 15.174103,14.97788 51.297097,-0.15357 102.594067,-0.39026 153.891177,-0.41913 4.95076,-0.003 6.56778,-1.41956 6.55379,-6.53327 -0.16461,-60.15179 -0.16298,-120.3043 -6.8e-4,-180.45607 0.0134,-4.9804 -1.6579,-6.11328 -6.31257,-6.08567 -28.65869,0.16995 -57.31898,0.0681 -86.97874,0.0559 m 134.84369,131.12736 c 1.18588,26.53409 23.94031,42.68711 43.59662,41.51059 29.14193,-1.74429 48.22195,-30.90179 36.8186,-57.7399 -8.27118,-19.4665 -20.59479,-36.47154 -33.99332,-52.69039 -3.46121,-4.18978 -5.36499,-4.00983 -8.78112,-0.0188 -10.20829,11.92614 -19.12906,24.78956 -26.94324,38.36496 -5.29401,9.19712 -10.71781,18.50888 -10.69754,30.57354 M 155.50006,118.31781 c -23.49779,1.1e-4 -46.99586,0.0619 -70.493178,-0.0431 -5.851052,-0.0261 -10.850228,1.89975 -14.965431,5.80748 -2.500855,2.37475 -5.39853,5.48228 -4.194016,9.0512 1.244072,3.68611 5.392563,2.50107 8.418884,2.50459 53.495201,0.0622 106.990491,0.0639 160.485741,0.0682 33.49699,0.003 66.99403,-3.4e-4 100.49095,-0.0458 2.24542,-0.003 5.01102,0.63687 6.24652,-1.97737 1.22391,-2.58965 -0.35263,-4.83603 -1.84973,-6.87527 -4.36987,-5.95233 -10.25149,-8.54359 -17.65439,-8.53285 -55.16168,0.08 -110.32353,0.0435 -166.48535,0.043 M 98.609032,349.53964 c 0.440979,2.62518 2.285218,2.33615 4.057748,1.81723 0.93976,-0.27514 1.05388,-1.33535 0.61243,-2.039 -1.25798,-2.00522 -2.85774,-1.59659 -4.670178,0.22177 z"
   id="path1"
   sodipodi:nodetypes="cscsssssssssssssssssssssssssssssssssssssscssccssssssssccsssssccssscsssssccssc" />
<path
   fill="#000000"
   opacity="1.000000"
   stroke="none"
   d=" M355.197083,55.996986   C363.717621,71.646339 353.537292,85.132179 341.109802,86.634743   C328.616486,88.145264 317.105133,76.267838 320.066895,64.065804   C322.526398,53.932957 328.728210,45.816414 335.829987,38.431862   C338.585052,35.567093 341.237335,36.862537 343.526245,39.400166   C348.003021,44.363342 351.890320,49.744591 355.197083,55.996986  M334.416260,54.976120   C332.985016,57.778667 331.375977,60.506737 330.163666,63.400997   C328.283447,67.889671 329.159119,71.997795 333.055573,74.993172   C336.736786,77.823112 340.893494,77.753777 344.693329,75.269920   C348.868805,72.540504 349.623688,68.408974 348.249237,63.830967   C347.233002,60.446217 345.187378,57.580097 343.251892,54.686089   C339.621948,49.258480 338.792908,49.252144 334.416260,54.976120  z"
   id="path2" />
<path
   fill="#000000"
   opacity="1.000000"
   stroke="none"
   d=" M366.695679,112.270676   C360.828156,105.404564 360.343323,98.210205 364.142700,90.648743   C367.145630,84.672226 371.131653,79.332924 375.480591,74.276337   C377.389893,72.056358 380.045929,70.582642 382.410553,72.933228   C389.552032,80.032394 395.836823,87.929878 397.209686,98.268402   C398.248169,106.088676 394.779510,112.234001 387.634094,115.886543   C380.616669,119.473648 373.487610,118.226234 366.695679,112.270676  M384.876556,91.697601   C384.160461,90.584602 383.434509,89.477791 382.730133,88.357430   C380.570099,84.921715 378.470520,85.183945 376.432220,88.460793   C374.947601,90.847542 373.215393,93.127075 372.075287,95.670364   C370.358673,99.499664 370.917938,103.340370 374.193909,106.059662   C377.253143,108.599083 380.924652,108.786606 384.350220,106.503036   C388.127228,103.985199 388.428040,100.328606 387.140442,96.377731   C386.682770,94.973488 385.904907,93.673607 384.876556,91.697601  z"
   id="path3" />
<path
   fill="#000000"
   opacity="1.000000"
   stroke="none"
   d=" M308.926819,174.954315   C300.277100,174.968506 292.116119,174.996460 283.955322,174.971680   C282.129028,174.966141 280.290955,174.874237 278.480103,174.647705   C275.713043,174.301544 273.673279,172.983688 273.770538,169.880402   C273.870270,166.697174 276.050232,165.685944 278.860168,165.652481   C282.690277,165.606888 286.521210,165.615112 290.351776,165.616898   C299.345367,165.621094 308.338959,165.650406 317.332520,165.636780   C320.432922,165.632095 323.163452,166.155640 323.243958,170.028961   C323.318085,173.594910 320.777649,174.392929 317.894623,174.574005   C315.071594,174.751266 312.242218,174.828094 308.926819,174.954315  z"
   id="path4" />
<path
   fill="#000000"
   opacity="1.000000"
   stroke="none"
   d=" M327.362183,18.483635   C330.286438,16.481377 332.723236,16.922548 334.618469,19.270355   C335.981689,20.959057 335.878632,22.999588 334.486816,24.724874   C332.958832,26.618937 330.807129,27.122868 328.726837,26.050823   C325.473022,24.374044 324.877106,21.801039 327.362183,18.483635  z"
   id="path5" />
<path
   fill="#000000"
   opacity="1.000000"
   stroke="none"
   d=" M310.080139,50.294067   C307.438782,51.658875 305.222565,51.727226 303.522766,49.551586   C302.179688,47.832508 302.194946,45.833145 303.328766,43.993542   C304.494171,42.102600 306.328674,41.449017 308.465057,41.928051   C312.054474,42.732914 312.816833,45.998672 310.080139,50.294067  z"
   id="path6" />
<path
   fill="#000000"
   opacity="1.000000"
   stroke="none"
   d=" M297.278625,81.526993   C299.703369,78.299736 302.364258,77.684044 305.066467,80.272835   C307.056824,82.179611 306.603943,84.535057 304.962860,86.529015   C303.704285,88.058205 301.935516,88.647285 300.047943,87.867653   C297.395172,86.771942 296.298218,84.761528 297.278625,81.526993  z"
   id="path7" />
<path
   fill="#000000"
   opacity="1.000000"
   stroke="none"
   d=" M377.173279,55.900978   C376.402466,58.774696 374.905884,60.311798 372.183319,60.219402   C370.180664,60.151440 368.651947,59.144108 368.052979,57.263474   C367.218079,54.642014 367.639618,52.129738 370.559052,51.203358   C374.244781,50.033829 376.600647,51.561623 377.173279,55.900978  z"
   id="path8" />
<path
   fill="#000000"
   opacity="1.000000"
   stroke="none"
   d=" M283.658173,58.443058   C286.358643,57.330784 288.531311,57.417042 290.206726,59.567631   C291.319427,60.995937 291.533783,62.609653 290.570312,64.167503   C289.139771,66.480492 287.071289,68.038734 284.420654,66.491653   C281.047119,64.522621 280.772064,61.698757 283.658173,58.443058  z"
   id="path9" />
<path
   fill="#000000"
   opacity="1.000000"
   stroke="none"
   d=" M127.037445,314.153900   C99.820526,300.730713 85.652702,279.271057 85.761276,249.153610   C85.877457,216.924347 112.060318,188.127090 144.783554,183.564331   C186.763153,177.710892 224.237198,210.998398 223.231735,253.248367   C222.432037,286.851837 195.722488,315.779358 162.496445,319.481903   C150.230591,320.848755 138.677124,318.834625 127.037445,314.153900  M178.280884,198.645584   C177.561554,196.377640 175.473114,195.973236 173.628387,195.327484   C164.178192,192.019394 154.511551,191.237137 144.658905,193.052231   C134.373688,194.947021 132.643219,196.583588 131.568207,206.653900   C130.680222,214.972336 135.261658,220.945648 140.256744,227.054825   C144.348511,232.059204 148.529160,229.538544 152.897171,228.980347   C153.391434,228.917191 153.892868,228.848495 154.388153,228.865326   C157.737839,228.979034 159.669525,227.259277 160.503784,224.143051   C163.093216,214.470627 167.881241,206.386765 176.837326,201.237701   C177.478287,200.869202 177.809738,199.962341 178.280884,198.645584  M146.063354,286.336578   C143.264618,292.360046 139.290131,297.309906 133.614182,300.958038   C130.268814,303.108185 130.445068,305.335693 133.884109,306.655640   C146.632736,311.548676 159.536484,311.794342 172.527802,307.580322   C174.940262,306.797791 176.304855,305.131104 177.207764,302.786865   C180.926605,293.131531 175.390839,278.807739 165.876495,273.874542   C165.042786,273.442230 163.968811,273.238159 163.025803,273.288757   C155.011017,273.718903 147.340225,274.701752 146.528030,285.166351   C146.515839,285.323486 146.402695,285.472778 146.063354,286.336578  M107.417320,287.074707   C111.035706,291.042236 113.709702,296.505798 120.472466,295.598541   C128.797989,294.481659 134.237915,289.769196 137.861298,282.265564   C141.149307,275.456451 141.887924,269.372345 135.403229,264.055450   C135.157196,263.853699 134.993393,263.525543 134.850906,263.227722   C133.461304,260.323364 131.068939,259.723541 128.165710,260.310608   C118.446121,262.275970 108.997063,262.169861 100.062416,257.062561   C97.634148,255.674500 96.144714,256.899323 96.162888,259.534088   C96.176476,261.505554 96.466713,263.521545 96.956581,265.435089   C98.919266,273.101654 102.242134,280.146881 107.417320,287.074707  M128.630615,250.411819   C133.295319,249.031479 132.452347,244.210907 134.414917,241.142349   C136.457092,237.949295 135.550262,235.516586 133.014908,232.807129   C126.489845,225.833954 121.839455,217.924896 122.583954,207.817871   C122.703613,206.193283 122.695946,204.407455 120.207077,203.563263   C109.995430,209.942184 103.124901,219.247116 98.916458,230.591080   C95.734291,239.168655 98.067253,244.865402 105.995560,249.363632   C113.099915,253.394394 120.457794,252.051163 128.630615,250.411819  M212.683044,240.517624   C210.279160,228.626022 204.873947,218.344482 196.231003,209.790253   C194.663376,208.238708 193.093689,206.860123 190.626160,207.108398   C182.253906,207.950836 175.678802,211.619125 171.995712,219.391495   C168.730316,226.282486 166.023636,233.317123 173.743118,239.335617   C173.868240,239.433151 173.953766,239.595123 174.028275,239.741974   C175.565292,242.771851 178.107101,243.505356 181.167389,242.677994   C190.122803,240.256866 198.882172,240.426422 207.499344,244.183823   C210.234192,245.376328 212.480148,244.988770 212.683044,240.517624  M184.676559,282.025787   C186.564117,285.429535 187.176224,289.214661 188.008316,292.945618   C188.998276,297.384460 190.489304,297.803375 194.001785,294.829498   C203.062714,287.158081 208.669296,277.361664 211.998230,266.080750   C212.731812,263.594788 212.468719,261.577698 210.982880,259.533813   C205.937469,252.593353 199.129456,249.624268 190.644760,250.414505   C183.249115,251.103317 176.954117,252.648849 174.941345,261.687073   C174.065170,265.621490 173.800995,268.168243 176.753967,270.900116   C179.954559,273.861053 182.379272,277.450867 184.676559,282.025787  M164.352585,260.817230   C169.518997,253.867584 168.946609,246.213608 162.903091,241.434677   C157.047363,236.804245 149.099976,237.723450 144.273224,243.589401   C139.929459,248.868378 140.360687,255.943604 145.345062,261.174988   C149.967087,266.026093 157.195999,266.087860 164.352585,260.817230  z"
   id="path10" />
<path
   fill="#000000"
   opacity="1.000000"
   stroke="none"
   d=" M118.000031,159.773529   C147.619339,159.764664 176.738663,159.756104 205.857971,159.747498   C206.357162,159.747345 206.856415,159.740936 207.355515,159.747116   C211.046722,159.792847 215.640076,159.416626 215.662170,164.499939   C215.684448,169.619537 211.105469,169.237793 207.404465,169.238556   C169.133377,169.246384 130.862305,169.254349 92.591225,169.261307   C91.592911,169.261490 90.594467,169.258560 89.596298,169.243530   C86.607895,169.198502 84.147156,168.131531 83.996346,164.845673   C83.831856,161.261810 86.389236,159.894073 89.546883,159.842987   C96.866364,159.724564 104.188728,159.782761 111.509918,159.771484   C113.506615,159.768402 115.503326,159.772858 118.000031,159.773529  z"
   id="path11" />
<path
   fill="#000000"
   opacity="1.000000"
   stroke="none"
   d=" M295.611206,294.304077   C291.320770,288.723358 289.191010,282.694122 288.704559,276.078461   C288.478760,273.008026 289.092072,270.166504 292.818085,269.883606   C296.246979,269.623291 297.179657,272.006348 297.541748,275.006592   C298.607635,283.838715 302.624146,290.725922 311.033569,294.523682   C314.193390,295.950714 315.194733,298.409302 313.766602,301.442993   C312.256042,304.651764 309.404327,304.028259 306.855774,302.965942   C302.482178,301.142883 298.926636,298.149017 295.611206,294.304077  z"
   id="path12" />
<path
   style="fill:#aaeeff;stroke-width:0.884541"
   d="m 315.56296,316.6153 c -10.85804,-2.14193 -23.75752,-12.05302 -28.72695,-22.07187 -5.68382,-11.45913 -6.30799,-21.83847 -2.00132,-33.28021 5.70799,-15.16474 33.70602,-56.04978 38.38283,-56.04978 1.89128,0 5.38463,3.67966 13.01616,13.71038 14.43817,18.9772 25.94135,40.10964 27.78589,51.04533 4.56184,27.04563 -21.35348,51.99267 -48.45661,46.64615 z m -2.04124,-13.60234 c 0.57926,-0.69796 0.92653,-2.5808 0.77171,-4.18408 -0.23582,-2.44214 -1.10053,-3.45594 -5.32996,-6.24898 -5.82126,-3.84425 -8.99564,-8.60217 -10.50052,-15.73873 -1.28571,-6.09719 -2.07542,-7.05626 -5.81018,-7.05626 -2.43369,0 -3.17822,0.44381 -3.89141,2.31965 -1.1716,3.08154 0.41624,11.77096 3.12928,17.12489 5.00359,9.8741 18.00172,18.15663 21.63108,13.78351 z"
   id="path13" /><path
   style="fill:#fff6d5;stroke-width:0.884541"
   d="m 70.42766,336.38168 c -1.731204,-0.85285 -3.454144,-2.61261 -4.093952,-4.18143 -0.843152,-2.06744 -1.254178,-23.92255 -1.735873,-92.29985 -0.575175,-81.64708 -0.504478,-89.7843 0.797316,-91.77109 l 1.428453,-2.1801 h 85.160876 c 65.05685,0 85.41146,0.25058 86.22233,1.06145 0.81218,0.81219 1.06145,23.02623 1.06145,94.5957 v 93.53424 l -1.96591,1.37698 c -1.74504,1.22227 -11.06091,1.3747 -82.92568,1.35682 -73.714154,-0.0183 -81.227318,-0.15193 -83.94901,-1.49272 z m 98.24178,-17.46206 c 25.74084,-5.45546 46.25837,-25.344 52.88775,-51.26642 2.1462,-8.39212 2.36935,-21.96513 0.5057,-30.75848 -4.91135,-23.1734 -22.74129,-43.02545 -45.58395,-50.75367 -36.206,-12.24936 -76.05865,7.7512 -88.234884,44.2818 -2.120378,6.36146 -2.359009,8.37201 -2.362175,19.90216 -0.004,14.58126 1.579545,22.01764 6.930036,32.54357 9.217653,18.13375 28.816073,32.48553 49.599133,36.32108 6.79734,1.25445 19.6909,1.12186 26.25839,-0.27004 z m 45.83168,-150.85689 c 2.25227,-2.25227 2.25227,-4.82406 0,-7.07633 -1.73576,-1.73575 -2.94847,-1.76908 -64.37466,-1.76908 -68.979725,0 -66.537365,-0.19481 -66.537365,5.30725 0,5.50205 -2.44236,5.30724 66.537365,5.30724 61.42619,0 62.6389,-0.0333 64.37466,-1.76908 z"
   id="path14" /><path
   style="fill:#fff6d5;stroke-width:0.588733"
   d="m 290.11914,337.93302 c -35.84532,-0.27483 -38.46391,-0.36416 -39.44514,-1.34563 -0.99874,-0.99899 -1.05859,-5.70641 -1.20356,-94.6603 l -0.15255,-93.60903 1.45044,-1.45045 1.45045,-1.45044 h 44.36361 c 37.36676,0 44.54385,0.13168 45.50642,0.83492 1.09715,0.80156 1.15725,2.0424 1.5043,31.05569 0.24059,20.11353 0.59199,31.08358 1.0507,32.80059 0.37907,1.4189 0.6138,2.65497 0.52162,2.74683 -0.0922,0.0919 -3.13517,-3.58589 -6.7622,-8.17279 -3.62702,-4.58688 -7.95333,-9.86314 -9.61401,-11.72501 -2.68802,-3.01367 -3.26855,-3.38522 -5.28924,-3.38522 -2.04671,0 -2.58789,0.36171 -5.50544,3.67959 -19.73775,22.44608 -40.3293,54.798 -44.55805,70.0063 -1.81893,6.54163 -1.96172,17.5096 -0.31301,24.04387 3.97366,15.74862 13.58711,28.06708 27.1306,34.76453 7.76997,3.84236 11.45431,4.76225 20.48913,5.11566 7.64379,0.299 12.10282,-0.20654 17.69405,-2.00605 2.74517,-0.88352 2.90769,-0.87169 4.07582,0.29644 1.0898,1.0898 1.1451,1.4554 0.53046,3.50692 -1.64066,5.47601 -5.68216,8.63007 -11.58659,9.04239 -1.61902,0.11305 -20.22103,0.0731 -41.33781,-0.0888 z m 25.09269,-163.01475 c 5.36019,-0.40081 6.26254,-0.62581 7.21199,-1.79833 1.62901,-2.01175 1.41462,-4.98633 -0.466,-6.46563 -1.50655,-1.18506 -2.18559,-1.2202 -23.5761,-1.2202 h -22.02487 l -1.44508,1.44507 c -3.00069,3.00069 -1.23343,7.2599 3.31778,7.99606 3.55801,0.57551 29.45822,0.60565 36.98228,0.043 z"
   id="path15" /><path
   style="fill:#87aade;stroke-width:0.588733"
   d="m 67.29635,134.37842 c -2.370338,-2.7599 -1.540424,-5.53443 2.889335,-9.65948 3.651965,-3.40076 6.560032,-4.91317 11.039156,-5.74118 4.731323,-0.87464 239.179129,-0.89845 244.563059,-0.0248 4.42971,0.71877 7.49722,2.17613 10.73239,5.09892 4.79436,4.33141 6.35726,9.22468 3.44428,10.78366 -0.68578,0.36701 -49.76035,0.5732 -136.4272,0.5732 -128.18105,0 -135.403066,-0.0546 -136.24102,-1.03028 z"
   id="path16" /><path
   style="fill:#aaeeff;fill-opacity:1;stroke-width:0.588733"
   d="m 333.61941,74.785817 c -2.99854,-2.184534 -4.48233,-5.231292 -4.00849,-8.230919 0.73591,-4.658731 7.32787,-15.335085 9.46842,-15.335085 2.05768,0 8.02434,9.351018 9.13366,14.314383 1.271,5.686733 -2.56249,10.44161 -8.76965,10.877435 -2.93169,0.205845 -3.54464,0.03474 -5.82394,-1.625814 z"
   id="path17" /><path
   style="fill:#aaeeff;fill-opacity:1;stroke-width:0.588733"
   d="m 375.89714,106.66765 c -1.32129,-0.68956 -2.53718,-2.03519 -3.41637,-3.78088 -1.68405,-3.343802 -1.30956,-5.156241 2.29968,-11.129726 2.60666,-4.314172 4.26781,-5.914837 5.6056,-5.401481 1.39659,0.535922 6.04534,8.616919 6.77466,11.776491 0.62085,2.689656 0.57186,3.227376 -0.454,4.983906 -2.46529,4.22115 -6.7986,5.64494 -10.80957,3.55169 z"
   id="path18" /><path
   style="fill:#aaeeff;fill-opacity:1;stroke-width:0.588733"
   d="m 188.6503,293.63082 c -2.34238,-8.68572 -3.22886,-11.14736 -5.2473,-14.57115 -1.24081,-2.10472 -3.60408,-5.36364 -5.25173,-7.24205 -3.52246,-4.01579 -3.92087,-5.21932 -3.05868,-9.2396 1.73944,-8.11074 6.00911,-11.16737 16.24579,-11.63029 7.59498,-0.34346 11.14524,0.86947 16.17492,5.52606 4.6562,4.31083 5.21564,6.07653 3.55445,11.21849 -3.11705,9.64833 -7.96349,17.73037 -14.49506,24.17234 -5.30636,5.23357 -6.89197,5.58707 -7.92239,1.7662 z"
   id="path19" /><path
   style="fill:#aaeeff;fill-opacity:1;stroke-width:0.588733"
   d="m 204.29052,242.75057 c -5.52807,-1.95785 -13.66312,-2.42574 -19.72257,-1.13436 -6.70686,1.42935 -7.15336,1.3426 -10.39294,-2.01941 -5.5419,-5.75131 -6.16252,-9.14648 -3.116,-17.04638 3.07521,-7.97429 8.26167,-12.62313 16.11483,-14.4444 5.19433,-1.20464 6.32314,-0.75786 11.01524,4.35988 8.24512,8.99307 15.69893,25.70919 13.55855,30.40681 -0.82613,1.81316 -2.04927,1.79312 -7.45711,-0.12214 z"
   id="path20" /><path
   style="fill:#aaeeff;fill-opacity:1;stroke-width:0.588733"
   d="m 142.76787,228.75244 c -1.70622,-0.9349 -6.95201,-7.72153 -8.76781,-11.34315 -2.05691,-4.10254 -2.60007,-7.82076 -1.84931,-12.65954 0.84729,-5.46086 2.04135,-7.49564 5.37303,-9.15609 8.60176,-4.28696 28.02577,-3.85013 37.88631,0.85203 2.93257,1.39844 3.05126,2.39666 0.53907,4.53355 -8.62335,7.33508 -12.3217,12.42003 -14.93038,20.52812 -1.84269,5.72728 -2.44547,6.27616 -7.95942,7.24768 -5.85045,1.03081 -8.40667,1.03017 -10.29149,-0.003 z"
   id="path21" /><path
   style="fill:#aaeeff;fill-opacity:1;stroke-width:0.588733"
   d="m 112.8702,251.31327 c -5.52677,-0.90396 -11.00114,-4.35821 -13.403415,-8.45738 -2.53975,-4.33375 -1.759283,-9.74567 2.675305,-18.55107 3.62011,-7.18818 9.03529,-13.77967 14.79258,-18.00591 4.34858,-3.19215 5.22753,-2.68521 5.22753,3.01502 0,4.20988 0.9954,8.72349 2.75066,12.47269 1.28441,2.74348 2.75474,4.86375 8.6281,12.442 1.92819,2.4879 1.88601,3.6531 -0.34234,9.45757 -2.05,5.33989 -3.08558,6.22284 -8.21796,7.00675 -6.94614,1.06095 -8.82736,1.15731 -12.11046,0.62033 z"
   id="path22" /><path
   style="fill:#aaeeff;fill-opacity:1;stroke-width:0.588733"
   d="m 115.16937,294.21956 c -5.1772,-2.77858 -13.54257,-15.3582 -16.736814,-25.16836 -1.991026,-6.11483 -2.462511,-9.99645 -1.391004,-11.45177 0.829509,-1.12663 0.924362,-1.11375 4.888198,0.66401 5.53623,2.48298 5.79422,2.55729 10.9141,3.14365 2.92029,0.33445 6.45802,0.28588 10.00847,-0.13741 8.76668,-1.04516 9.15621,-0.98926 11.47324,1.64661 4.03785,4.5935 5.49864,7.34292 5.49864,10.34922 0,5.96066 -4.85498,14.73737 -10.1572,18.36193 -2.76393,1.88941 -8.493,3.91677 -11.0683,3.91677 -0.52864,0 -2.07184,-0.5961 -3.42933,-1.32465 z"
   id="path23" /><path
   style="fill:#aaeeff;fill-opacity:1;stroke-width:0.588733"
   d="m 144.92468,309.36366 c -6.2591,-1.18572 -12.19627,-3.29158 -12.98625,-4.60611 -0.55681,-0.92654 -0.22547,-1.43504 2.2928,-3.51874 7.31277,-6.05083 11.56444,-11.89799 12.93331,-17.78668 0.42977,-1.84882 1.28592,-4.05709 1.90255,-4.90726 1.79206,-2.47079 5.99453,-4.23607 10.98255,-4.61332 4.05671,-0.30681 4.63416,-0.20455 7.14106,1.2646 3.25964,1.91027 7.35113,7.23631 9.19809,11.97346 1.80647,4.63334 1.92049,12.37181 0.23125,15.69577 -0.6476,1.27432 -1.83979,2.79497 -2.6493,3.37923 -4.32188,3.11928 -20.10065,4.81365 -29.04606,3.11905 z"
   id="path24" /><path
   style="fill:#87aade;fill-opacity:1;stroke-width:0.588733"
   d="m 148.53962,263.13999 c -3.73753,-1.97391 -6.94922,-7.26869 -6.94922,-11.45643 0,-4.39684 3.28363,-9.21633 7.89939,-11.59419 3.31058,-1.70549 8.7375,-1.3097 12.04389,0.87837 5.53863,3.66528 7.36119,9.9065 4.63306,15.86553 -0.80675,1.76217 -2.27442,3.77578 -3.26748,4.4829 -4.33385,3.08597 -10.48946,3.8678 -14.35964,1.82382 z"
   id="path25" /></svg>
